<svg xmlns="http://www.w3.org/2000/svg" viewBox="0 0 63.91 56.77"><defs><style>.cls-1{fill-rule:evenodd;}</style></defs><g id="Camada_2" data-name="Camada 2"><g id="Layer_1" data-name="Layer 1"><path class="cls-1" d="M14.79,26.24a2,2,0,0,1-2.54.2l-.05,0-1.41-1.42a10,10,0,0,1,0-14.14h0a2,2,0,0,1,2.83,2.83h0a6,6,0,0,0,0,8.48l1.17,1.17h0l.24.24,0,.05a2,2,0,0,1-.19,2.53Zm5.17-14a2,2,0,1,1,2.83,0,2,2,0,0,1-2.83,0ZM58.87,30.73,44.73,44.87h0L46,43.56a2,2,0,0,1-2.82-2.83L54.63,29.31h0l1.42-1.41c5-5,5.46-14.33,0-19.8a14,14,0,0,0-19.8,0l-1.4,1.4h0a4,4,0,0,1-5.69,0h0l-1.4-1.4A14,14,0,0,0,8,8.1,14.35,14.35,0,0,0,8,27.9l11.4,11.4L33.42,53.35h0a2,2,0,0,1-2.83,2.82L19.28,44.87,5.13,30.73a18.36,18.36,0,0,1,0-25.46,18,18,0,0,1,25.46,0L32,6.69l1.42-1.42a18,18,0,0,1,25.45,0c7,7,6.41,19.05,0,25.46Zm-17.8,15a2,2,0,1,1-2.82,0,2,2,0,0,1,2.82,0Z"/></g></g></svg>