<svg xmlns="http://www.w3.org/2000/svg" viewBox="0 0 64 52"><defs><style>.cls-1{fill-rule:evenodd;}</style></defs><g id="Camada_2" data-name="Camada 2"><g id="Layer_1" data-name="Layer 1"><path class="cls-1" d="M56,42H54a2,2,0,0,1,0-4h2a4,4,0,0,0,4-4V28a1.91,1.91,0,0,0-.07-.47c0-.06,0-.12-.08-.19a1.13,1.13,0,0,0-.09-.2,4.21,4.21,0,0,0-3-2.07A20.16,20.16,0,0,0,50,24a19.7,19.7,0,0,0-6.64,1.06,4.5,4.5,0,0,0-2.27,1h0a1.84,1.84,0,1,1-2.12-3,14.55,14.55,0,0,1,4-2A10,10,0,0,1,40,14.82,7.38,7.38,0,0,1,40,14V8a8,8,0,0,1,8-8h4a8,8,0,0,1,8,8v6a2,2,0,0,1-4,0V8a4,4,0,0,0-4-4H48a4,4,0,0,0-4,4v6a6,6,0,0,0,6,6c7.73,0,14,3.58,14,8v6a8,8,0,0,1-8,8ZM35,24.78a2,2,0,0,1-1.89,1.38,2,2,0,0,1-2-2,2.17,2.17,0,0,1,.17-.81h0A8,8,0,0,0,32,20a8.08,8.08,0,0,0-.12-1.31A5.13,5.13,0,0,0,32,17.57V9.43A5.38,5.38,0,0,0,26.67,4H21.33A5.38,5.38,0,0,0,16,9.43v8.14a5.13,5.13,0,0,0,.12,1.12A7.93,7.93,0,0,0,24,28c13.25,0,24,4.93,24,11v5a8,8,0,0,1-8,8H8a8,8,0,0,1-8-8V39c0-2.3,1.53-4.41,4.12-6.16a1.84,1.84,0,1,1,2.14,3v0C4.83,36.83,4,37.9,4,39v5a4,4,0,0,0,4,4H40a4,4,0,0,0,4-4V39c0-3.87-9-7-20-7a12,12,0,0,1-10.44-6.1l0,0c-.18-.32-.34-.65-.49-1a.93.93,0,0,1-.05-.1c-.14-.32-.26-.64-.37-1l-.06-.18c-.1-.3-.18-.62-.25-.93a2.27,2.27,0,0,1-.06-.25c-.07-.31-.11-.62-.15-.93,0-.1,0-.19,0-.29A10.36,10.36,0,0,1,12,20c0-.22,0-.44,0-.65s0-.45,0-.68V9.33A9.17,9.17,0,0,1,21,0h6a9.17,9.17,0,0,1,9,9.33v9.34c0,.23,0,.45,0,.68s0,.43,0,.65a11.77,11.77,0,0,1-1,4.78ZM13,31a2,2,0,1,1-2-2,2,2,0,0,1,2,2Z"/></g></g></svg>